<?xml version='1.0' encoding='utf-8'?>
<svg xmlns="http://www.w3.org/2000/svg" version="1.1" id="Layer_1" x="0px" y="0px" viewBox="0 0 1800 1920" style="enable-background:new 0 0 1800 1920;"> <style type="text/css"> .st0{opacity:0.18;} .st1{fill:#E4BDD9;} .st2{fill:#843594;} .st3{fill:#8A4D9E;stroke:#843594;stroke-width:16;stroke-miterlimit:10;} .st4{fill:#E42F26;} .st5{opacity:0.6;fill:#FFFFFF;} .st6{fill:#521414;stroke:#3C1414;stroke-miterlimit:10;} .st7{fill:none;stroke:#ED1D24;stroke-width:8;stroke-miterlimit:10;} .st8{fill:none;stroke:#1AAF4B;stroke-width:8;stroke-miterlimit:10;} .st9{fill:none;stroke:#A4509F;stroke-width:8;stroke-miterlimit:10;} .st10{fill:none;stroke:#F1E912;stroke-width:8;stroke-miterlimit:10;} .st11{fill:none;stroke:#5DC5BE;stroke-width:8;stroke-miterlimit:10;} .st12{fill:none;stroke:#3D1716;stroke-width:8;stroke-miterlimit:10;} </style> <g class="st0"> <ellipse transform="matrix(0.7071 -0.7071 0.7071 0.7071 -433.4904 912.0142)" class="st1" cx="884.2" cy="979.3" rx="582.7" ry="1048.5"/> <g> <g> <g> <g> <path class="st2" d="M1299.4,564c10.3,7.7,10.6,4.7,6.1-3.3c-2.2-4-5.7-9.1-9.7-14.8c-2-2.8-4.1-5.8-6.3-8.8 c-2.2-3-4.4-6-6.6-8.9c0,0-7.3-1.9-14.6-3.7c-3.6-0.9-7.3-1.8-10-2.5c-2.7-0.7-4.6-1.1-4.6-1.1s2.9,2.6,7.2,6.6 c4.3,4,10,9.4,15.8,14.7c5.7,5.3,11.3,10.8,15.6,14.9C1296.6,561.3,1299.4,564,1299.4,564z"/> <path class="st2" d="M1198.8,465c0,0-4-2.2-10-5.4c-6-3.3-14-7.4-22.1-11.6c-8-4.2-16.1-8.3-22.2-11.3c-6-3-10.1-5.1-10.1-5.1 s11.1,6.6,22.2,13.1c11,6.7,22,13.5,22,13.5c19.1,21.4,14.9,23.2,3.9,18.3c-11-5-29.2-16.4-38.3-22 c9.2,6.9,16.6,12.3,22.7,16.3c6,4.1,10.6,6.9,14.2,8.6c7.2,3.5,10.1,2.8,11.3,0.4C1195,475,1190.4,463.4,1198.8,465z"/> <path class="st2" d="M1082.3,387.5c-2.2-1.7-4.3-3.3-6.3-4.7c-1.9-1.4-3.8-2.6-5.4-3.7c-3.3-2.2-6.1-3.7-8.3-4.8 c-4.5-2.2-6.9-2.3-7.7-1.3c-1.7,2.2,2.8,9.5,9.6,16.3c1.2-0.4,3.8,0.1,6.8,0.9c3,0.8,6.3,2,9.1,2.7 C1085.7,394.4,1089,394.4,1082.3,387.5z"/> <path class="st2" d="M833.8,1719.7c-10.4-8.3-23-17.1-19.7-18.5c-7-2.4-11.5-3.5-9.5-1.1c1,1.2,3.6,3.3,8.2,6.5 C817.5,1709.8,824.4,1714.1,833.8,1719.7z"/> <path class="st2" d="M814.1,1701.2c2.7,1,5.6,1.9,9,3.2c-2.7-1.3-4.9-2.4-8-3.7C814.2,1700.6,814.5,1701.1,814.1,1701.2z"/> <path class="st2" d="M267.1,987.5c-3.8-4.7-7.2-9.3-10.5-13.8c-1.6-2.2-3.2-4.4-4.6-6.6c-1.4-2.2-2.8-4.3-4.2-6.4 c-2.7-4.2-5.2-8.4-7.6-12.5c-2.3-4.1-4.6-8.2-6.7-12.3c-1.1-2-2.2-4.1-3.3-6.1c-1-2.1-2.1-4.1-3.1-6.2 c-2.1-4.1-4.2-8.3-6.5-12.6c-2.2-4.3-4.4-8.7-6.9-13.3c-1.2-2.3-2.5-4.6-3.8-7c-1.3-2.4-2.6-4.8-4-7.3c0,0,0-1.8,0.1-4.4 c0.1-2.6,0.1-6.1,0.2-9.7c0.3-7,0.6-14,0.6-14c-11.6-21.4-15.9-25.4-20-27.8c-2-1.2-4-1.9-6.7-4.3c-1.3-1.2-2.8-2.8-4.6-5 c-1.8-2.3-3.7-5.2-6.1-9.1c-0.5-2.8-1.2-5.7-2-8.8c-0.8-3.1-1.5-6.3-2.5-9.6c-0.9-3.3-1.9-6.7-3-10.3c-1-3.5-2.1-7.1-3.2-10.8 c-4.6-14.5-9.5-30.2-14.3-45.2c-1.1-3.7-2.3-7.4-3.4-11c-1.1-3.6-2.3-7.2-3.2-10.6c-2-6.9-4-13.4-5.5-19.3 c-3.3-11.8-5.5-21.1-6.4-26.2c1.4-7.6,4.2-3.5,7.3,3c1.6,3.3,3.1,7.2,4.7,10.7c1.6,3.5,3.1,6.5,4.3,8c-1-3.3-2-6.4-3-9.3 c-0.9-2.9-1.8-5.6-2.7-8.1c-1.8-5.1-3.6-9.5-5.1-13.5c-1.6-4-3.2-7.6-4.7-11.1c-1.5-3.5-2.9-6.8-4.4-10.2 c-1.4-3.5-2.9-7-4.2-11c-1.3-3.9-2.7-8.3-3.9-13.2c-0.6-2.5-1.1-5.1-1.7-8c-0.3-1.4-0.5-2.9-0.8-4.4c-0.3-1.5-0.5-3.1-0.8-4.7 c-0.9-6.5-1.8-13.9-2.2-22.3l3.3-1.3c-3.3-20-5.3-40.8-5.6-62c-0.2-5.3,0-10.6,0.1-15.9c0-1.3,0-2.7,0.1-4 c0.1-1.3,0.1-2.7,0.2-4c0.1-2.7,0.3-5.3,0.4-8c0.1-2.7,0.4-5.3,0.6-8c0.2-2.7,0.5-5.3,0.7-8c0.3-2.7,0.7-5.3,1-8l0.5-4 c0.2-1.3,0.3-2.7,0.6-4c3.4-21.3,8.7-42.4,16.2-62.7c1-2.5,2-5,3-7.5l1.5-3.8l1.7-3.7c1.1-2.5,2.2-4.9,3.3-7.4 c1.2-2.4,2.4-4.8,3.6-7.2l1.8-3.6c0.6-1.2,1.3-2.4,2-3.5c1.3-2.4,2.6-4.7,3.9-7.1c1.4-2.3,2.8-4.6,4.2-6.9l2.1-3.5 c0.7-1.2,1.5-2.2,2.3-3.4l4.6-6.7c1.6-2.2,3.2-4.3,4.9-6.5l2.4-3.3c0.8-1.1,1.7-2.1,2.6-3.1l5.2-6.3c1.8-2.1,3.6-4,5.5-6.1 l2.7-3c0.9-1,1.9-1.9,2.9-2.9l5.8-5.8c1.9-1.9,4-3.7,6-5.6l3-2.8c1-0.9,2.1-1.8,3.1-2.7l6.3-5.3c2.1-1.7,4.3-3.3,6.5-5l3.3-2.5 c1.1-0.9,2.2-1.6,3.4-2.4l6.8-4.7c2.3-1.5,4.6-3,7-4.5l3.5-2.2c1.1-0.8,2.4-1.4,3.6-2.1l7.2-4.2c9.8-5.3,19.7-10.4,30.1-14.7 l3.9-1.7l1.9-0.8l2-0.8c2.6-1,5.3-2,7.9-3.1c2.6-1.1,5.3-1.9,8-2.9c2.7-0.9,5.3-1.9,8-2.8c21.6-7,43.9-12.2,66.4-16.1 c-12.3,0.8-9.6-2.2-14.7-4c23.9-3.9,49-5.8,74.5-6.2l4.8-0.1l4.8,0.1c3.2,0,6.4,0.1,9.7,0.1c3.2,0,6.5,0.2,9.7,0.3 c3.2,0.1,6.5,0.2,9.7,0.4c3.3,0.2,6.5,0.4,9.8,0.6c3.3,0.2,6.5,0.4,9.8,0.7c3.3,0.3,6.5,0.6,9.8,0.9c1.6,0.2,3.3,0.3,4.9,0.4 l4.9,0.6c52.4,5.7,105.2,17,156.1,31.2c50.9,14.2,100.1,31.3,146.3,48.5c23.1,8.6,45.5,17.4,67.1,25.8c5.4,2.1,10.7,4.2,16,6.3 c5.3,2.1,10.5,4.2,15.7,6.2c2.6,1,5.2,2,7.8,3c2.6,1,5.1,2,7.6,3c5.1,2,10.1,3.9,15.1,5.8c-25-14-53.9-31.2-85.6-48.6 c-8-4.3-16-8.8-24.3-13.1c-4.1-2.2-8.3-4.4-12.5-6.5c-4.2-2.1-8.5-4.3-12.7-6.4c-2.1-1.1-4.3-2.1-6.4-3.2 c-2.1-1.1-4.3-2.1-6.5-3.1c-4.3-2.1-8.7-4.2-13-6.2c-4.4-2.1-8.8-4-13.2-6c-4.4-2-8.8-4-13.3-5.9c-4.5-1.9-8.9-3.8-13.4-5.7 c-4.5-1.9-9-3.6-13.5-5.4c-2.3-0.9-4.5-1.8-6.7-2.7c-2.3-0.9-4.5-1.7-6.8-2.5c-4.5-1.7-9-3.3-13.5-4.9c-4.5-1.5-9.1-3-13.5-4.6 c-2.3-0.7-4.5-1.5-6.7-2.2c-2.3-0.7-4.5-1.4-6.8-2.1c-4.5-1.3-9-2.7-13.4-4c-4.5-1.2-8.9-2.4-13.3-3.5 c-2.2-0.6-4.4-1.1-6.6-1.7c-2.2-0.5-4.4-1-6.6-1.5c-4.4-1-8.7-1.9-13-2.8c-4.3-0.8-8.6-1.6-12.8-2.3c-2.1-0.4-4.2-0.7-6.3-1 c-2.1-0.3-4.2-0.6-6.3-0.9c-4.1-0.5-8.2-1.1-12.3-1.5c-4-0.4-8-0.7-12-1c-7.8-0.6-15.5-0.7-22.8-0.7c-1.3-0.5-2.6-1-3.9-1.5 c-1.3-0.4-2.7-0.9-4-1.3c-2.7-0.8-5.6-1.6-8.4-2.3c-5.8-1.5-11.8-2.5-18-3.5c-12.3-1.9-25.1-2.8-37.1-3.5 c-24-1.4-44.7-1.4-53.6-7.6c-20.7-0.5-39.9,0.5-57.8,2.6c-2.2,0.3-4.4,0.6-6.6,0.8c-2.2,0.3-4.4,0.5-6.5,0.9 c-4.3,0.7-8.5,1.5-12.7,2.2c-4.1,0.8-8.2,1.7-12.2,2.6c-4,0.8-7.9,1.9-11.8,2.9c-7.7,1.9-15.1,4.5-22.4,6.8 c-7.1,2.7-14.2,5.1-20.9,8.1c-1.7,0.7-3.4,1.4-5,2.2c-0.8,0.4-1.7,0.7-2.5,1.1l-2.4,1.2c-3.2,1.6-6.5,3.1-9.7,4.7 c-3.2,1.6-6.3,3.4-9.4,5c-1.5,0.8-3.1,1.7-4.6,2.5l-4.5,2.7c-12.1,7-23.5,15.1-34.7,23.6c-2.8,2.2-5.6,4.4-8.3,6.6 c-2.7,2.3-5.4,4.6-8.1,7l-2.1,1.7l-2,1.9c-1.3,1.2-2.7,2.5-4,3.7c-1.3,1.2-2.7,2.5-4,3.7c-1.3,1.3-2.6,2.6-3.9,3.9 c-1.3,1.3-2.6,2.6-4,4c-0.7,0.7-1.3,1.3-2,2c-0.7,0.7-1.3,1.4-1.9,2.1c-2.6,2.8-5.2,5.6-7.8,8.4c-2.5,2.9-5.1,5.9-7.7,8.9 c-1.3,1.5-2.6,3.1-3.8,4.6c-1.3,1.6-2.5,3.2-3.8,4.8c-10.1,12.8-20.1,27-29.6,43.1c-1.6,2.2-3,3.9-4.3,5.2 c-1.2,1.4-2.2,2.4-3.2,3.1c-1.9,1.4-3.3,1.7-4.7,1.5c-2.7-0.4-4.8-2.8-8.9-1.4c0,0,0.8-1.7,2.3-4.8c0.7-1.5,1.6-3.4,2.7-5.5 c1.1-2.1,2.4-4.4,3.7-7c2.6-5.2,6.3-11,9.9-17.3c4-6.1,8.1-12.7,12.8-19c1.1-1.6,2.3-3.2,3.4-4.8c1.2-1.6,2.4-3.1,3.6-4.6 c1.2-1.5,2.4-3,3.6-4.5c1.2-1.5,2.3-3,3.5-4.3c2.4-2.8,4.7-5.5,7-8c0.6-0.6,1.1-1.3,1.6-1.9c0.6-0.6,1.1-1.2,1.7-1.8 c1.1-1.1,2.2-2.3,3.2-3.3c2-2.1,3.9-4.1,5.6-5.8c1.7-1.7,3.2-3.1,4.5-4.3c2.5-2.4,3.9-3.7,3.9-3.7s-3.8,2.9-9.6,7.3 c-2.8,2.3-6,5-9.5,8c-1.8,1.4-3.5,3-5.2,4.6c-1.8,1.6-3.5,3.3-5.3,4.9c-7,6.7-13.8,13.6-18.6,19.1c-2.4,2.7-4.5,4.9-5.8,6.6 c-1.4,1.6-2.1,2.6-2.1,2.6c1-1.9,2-4,3.3-6.1c1.3-2.1,2.8-4.3,4.3-6.6c3-4.7,6.8-9.4,10.8-14.4c1.9-2.5,4.1-4.9,6.3-7.4 c2.2-2.4,4.4-5,6.7-7.4c2.3-2.4,4.7-4.8,7-7.2c1.2-1.2,2.3-2.4,3.5-3.6c1.2-1.1,2.4-2.3,3.6-3.4c2.4-2.3,4.7-4.5,7-6.7 c2.4-2.1,4.7-4.2,6.9-6.2c1.1-1,2.2-2,3.2-3c1-1,2.1-1.9,3.2-2.8c2.1-1.8,4-3.6,5.8-5.3c1.8-1.7,3.4-3.3,4.9-4.8 c1.5-1.5,2.8-2.9,3.9-4.2c2.2-2.6,3.6-4.9,3.9-6.8c-11.3,9.2-23.2,19.2-35,30.3c-11.7,11.2-23.4,23.5-34.5,36.8 c-22.3,26.5-41.6,57.8-55.7,90.7c-0.9,2.1-1.7,4.1-2.6,6.2l-1.3,3.1c-0.4,1-0.8,2.1-1.2,3.1c-1.5,4.2-3.1,8.3-4.6,12.5 c-1.4,4.2-2.7,8.4-4.1,12.6c-1.3,4.2-2.4,8.4-3.6,12.6c-1.2,4.2-2.1,8.4-3.1,12.5c-0.5,2.1-1,4.2-1.4,6.2 c-0.5,2.1-0.8,4.2-1.2,6.2c-0.4,2.1-0.8,4.1-1.2,6.2c-0.4,2.1-0.8,4.1-1.1,6.1c-0.6,4.1-1.2,8.1-1.8,12.1c-0.3,2-0.5,4-0.7,6 c-0.2,2-0.4,4-0.6,5.9c-0.2,2-0.4,3.9-0.6,5.9c-0.1,1.9-0.2,3.9-0.4,5.8c-0.2,3.8-0.4,7.6-0.6,11.4c0,3.7-0.1,7.4-0.1,11 c0,1.8,0,3.6,0,5.4c0.1,1.8,0.1,3.5,0.2,5.3c0.2,3.5,0.3,6.9,0.6,10.2c0.5,6.7,1.3,13.1,2.1,19.1c1.6-22.7,3.2-48.1,6.8-74.3 c1.7-13.1,4.2-26.4,7.1-39.6l2.5-9.8l1.3-4.9l1.5-4.8c1-3.2,2-6.4,3-9.6c1.1-3.2,2.3-6.3,3.4-9.5c0.7-1.3,1.4-2.7,2.2-4 c0.7-1.4,1.6-2.8,2.4-4.2c1.6-2.8,3.2-5.7,4.9-8.7c1.6-2.9,3.5-5.7,5.2-8.5c1.7-2.7,3.3-5.4,5.1-7.7c1.7-2.4,3.3-4.6,4.9-6.5 c0.8-0.9,1.5-1.8,2.2-2.6c0.7-0.8,1.4-1.5,2.1-2.1c2.6-2.4,4.6-3.3,5.7-2.1c-6.8,17.2-12.3,34.2-16.8,51.2 c-4.5,17-8.1,33.9-10.7,50.7c-2.7,16.9-4.6,33.7-5.9,50.6c-0.3,4.2-0.5,8.4-0.8,12.6c-0.2,4.2-0.3,8.5-0.5,12.7 c-0.2,4.2-0.2,8.5-0.3,12.7c0,4.2-0.2,8.5,0,12.7c0,17,1,34,2.3,51.2c1.3,17.2,3.6,34.5,6.4,52c0.7,4.4,1.5,8.8,2.2,13.2 c0.9,4.4,1.7,8.8,2.6,13.2c0.8,4.4,1.8,8.9,2.8,13.3c0.5,2.2,1,4.5,1.5,6.7l0.8,3.4l0.8,3.3c1.1,4.5,2.2,9,3.4,13.5 c1.2,4.5,2.5,9,3.7,13.5c0.6,2.3,1.3,4.5,1.9,6.8c0.7,2.3,1.4,4.5,2.1,6.8c1.4,4.5,2.8,9.1,4.3,13.7c6,18.4,13.1,40,18.6,58 c5.5,18,9.4,32.4,7.7,36.5c-5.5-11.6-7.7-12.5-9.8-12.7c-2-0.3-4.1,0-9-9.5c1.5,3.2,2.8,5.9,4.2,8.3c1.3,2.4,2.6,4.4,3.7,6.2 c2.3,3.5,4.3,5.9,6.1,7.5c3.6,3.3,6.4,3.7,9.3,5c2.9,1.3,5.8,3.3,9.8,9.7c1.9,3.2,4.3,7.4,7,13.2c1.3,2.9,2.8,6.1,4.3,9.8 c1.6,3.7,3.4,7.8,5.2,12.4c0,0-5.7-0.2-11.5-0.5c-5.7-0.3-11.5-0.6-11.5-0.6c16.4,10.3,25.6,32.9,36.1,58.6 c1.3,3.2,2.7,6.5,4,9.8c1.4,3.3,2.7,6.6,4.2,9.9c3,6.6,6,13.4,9.4,19.9c3.4,6.5,7.1,13,11.2,19.2c4.1,6.1,8.6,12,13.5,17.4 c0.8,5.5,0,7.7-2.1,7.3c-2.1-0.4-5.5-3.3-9.5-8.1c-8.2-9.7-19.5-27-30-46.6c2.6,5.8,4.9,10.8,7.3,15.3 c2.4,4.4,4.7,8.3,6.9,11.7c4.4,6.9,8.7,12,12.9,16.8c2.1,2.4,4.1,4.7,6.2,7.1c2.1,2.4,4.2,4.8,6.4,7.5c2.2,2.7,4.4,5.6,6.7,9 c2.3,3.4,4.8,7,7.3,11.4c0,0-2.2-1.5-5.4-3.7c-3.3-2.2-7.6-5.2-11.9-8.2c-4.3-3-8.6-6-11.9-8.3c-1.6-1.1-3-2.1-3.9-2.8 c-0.9-0.7-1.5-1.1-1.5-1.1c4.4,3.7,8.5,7.4,11.9,11.2c3.5,3.8,6.4,7.9,9.1,11.8c2.7,4,4.9,8.1,6.9,12.2c1,2,1.9,4.1,2.7,6.2 c0.9,2,1.7,4.1,2.4,6.1c5.9,16.3,8.6,32,13,43.9c2.6,0,3.5-6.5,7.4-7.4c2-0.4,4.7,0.5,8.7,4.5c4.1,3.9,9.3,10.8,16.9,22 c5.7,10.1,5.9,13.4,4.9,14.9c-1,1.5-3.4,1.2-2.8,4.1c2.6,0,8.4,2.8,16.1,9.1c3.8,3.2,8.3,7.2,13,12.2c2.4,2.5,4.9,5.2,7.4,8.2 c2.6,3,5.3,6.2,8,9.7c-0.4,4.4-5.7,1-11.7-3.3c-6-4.3-12.6-9.5-15.7-8.7c2,2.7,4,5.3,6,7.9c1.9,2.6,3.9,5.1,5.8,7.5 c3.8,4.9,7.4,9.5,10.7,14.1c3.3,4.6,6.5,9,9.2,13.5c2.8,4.5,5.2,9,7.3,13.6c16.9,17.1,18,15.1,17.9,11.3 c-0.1-3.9-1.6-9.6,10-0.3c5.4,7.3,9.3,13.1,12,17.7c2.7,4.6,4.2,7.9,4.8,10.4c1.2,4.9-1.3,6.3-4.9,6.8 c-7.2,1-19.1-1.9-14.9,12.5c-21.3-18.5-43.7-41.6-63.2-63c-9.7-10.8-18.8-21-26.6-30c-8-8.9-14.7-16.6-20-22.1 c0,0,4.2,5.3,10.5,13.3c3.2,3.9,6.9,8.5,10.9,13.5c2,2.5,4,5,6.2,7.6c2.1,2.6,4.3,5.2,6.5,7.7c8.6,10.4,17.4,20.6,24,28.3 c3.3,3.9,6.1,7,8.1,9.2c2,2.2,3.1,3.5,3.1,3.5c-4.7-0.4,4.4,15.7,9.9,26.8c5.4,11.1,6.9,17.4-14.1-2.6 c32,43.9,72.3,88.5,115.3,129.4c10.7,10.3,21.6,20.2,32.5,30c5.5,4.8,11,9.6,16.4,14.4c5.4,4.8,11,9.4,16.4,14 c21.9,18.4,43.5,35.6,64.2,51.3c-4.8-5.7-10.6-11.8-14.4-16.8c-3.8-5-5.8-8.7-3.3-9.3c10.6,8.1,18.2,14.1,23.4,19 c2.6,2.4,4.6,4.6,6.3,6.4c1.6,1.9,2.8,3.5,3.7,5c3.6,5.9,2.4,9.3,5,14.8c2.1,1.4,4.1,2.6,6,3.7c1.9,1.1,3.7,2,5.4,2.9 c3.4,1.7,6.4,3,9.2,4c5.5,2,9.9,2.7,14.1,3c8.3,0.6,15.4-0.4,27.5,3.5c29,28.7,47.4,42.8,64.2,56.5c4.2,3.4,8.4,6.8,12.6,10.3 c4.2,3.5,8.6,7.2,13.1,11.2c2.3,2,4.6,4.1,7.1,6.4c2.5,2.2,5,4.5,7.6,7c5.3,4.9,11,10.5,17.4,16.6l2.7-12.3 c9.1,8.6,16.9,14.3,24.2,18.4c7.3,4.2,14,7,20.9,9.6c6.9,2.6,13.8,5.3,21.9,9.2c4,1.9,8.2,4.2,12.8,7c4.6,2.8,9.5,6,14.9,9.9 c1.4,3.6-17.9-3.3-33.5-9.1c5.4,2.5,9.9,4.8,13.8,7c3.9,2.2,7.2,4.2,10.1,6.2c5.8,3.9,9.9,7.7,14.1,11.2 c4.2,3.6,8.3,7.1,14.2,10.8c5.8,3.7,13.4,7.5,24.2,11.6c0,0-9.7-1.2-19.3-2.4c-2.4-0.3-4.9-0.6-7.1-0.9 c-2.3-0.3-4.4-0.6-6.2-0.9c-3.6-0.5-6.1-0.9-6.1-0.9c16.5,8.5,37.5,17.6,51.6,24.8c14.2,7.1,21.5,12.4,10.4,13.5 c4.1,0.9,8.2,2.1,12.6,3.2c4.3,1.2,8.8,2.4,13.4,3.8c4.6,1.4,9.3,2.9,14.1,4.4c4.8,1.5,9.8,3.2,14.8,4.9 c20.1,6.6,41.8,14.1,64.2,21.2c22.4,7.1,45.4,13.8,68.1,19.3c22.6,5.6,44.8,9.7,65.3,11.9l-7.5,8.9c5.6-0.5,12.1-0.2,19.4,0.3 c3.7,0.2,7.5,0.6,11.5,1c2,0.2,4,0.5,6.1,0.7c2.1,0.2,4.2,0.5,6.4,0.7c4.3,0.5,8.7,1.1,13.3,1.7c4.5,0.5,9.2,1.1,13.9,1.7 c2.3,0.3,4.7,0.6,7.1,0.9c2.4,0.2,4.8,0.5,7.2,0.8c2.4,0.3,4.8,0.5,7.2,0.8c2.4,0.3,4.8,0.5,7.2,0.7 c19.3,1.8,38.7,2.5,55.5,1.8c16.8-0.9,31.1-3.2,40.3-7.4l6.6,3.8c0,0,1.3-0.3,3.7-0.8c1.2-0.3,2.6-0.6,4.2-0.9 c1.6-0.4,3.5-0.9,5.4-1.4c4-1,8.6-2.1,13.6-3.5c4.9-1.4,10.2-2.9,15.4-4.4c5.2-1.7,10.4-3.3,15.2-4.9c4.8-1.6,9.3-3.3,13.1-4.6 c1.9-0.7,3.7-1.3,5.2-1.9c1.5-0.6,2.9-1.1,4-1.6c2.2-0.9,3.5-1.4,3.5-1.4c9.5-1.7,16.1-2.4,20.6-1.9c2.3,0.2,4.1,0.6,5.5,1.2 c1.4,0.5,2.4,1.2,3.1,1.9c2.9,2.8,1.2,6.2,2.1,3.7c20.9-6.8,40.3-14.5,58.2-23.1c17.9-8.6,34.3-17.9,49.4-27.5 c3.7-2.4,7.4-4.9,11.1-7.2c3.6-2.5,7.1-5,10.6-7.4c0.9-0.6,1.7-1.2,2.6-1.8c0.8-0.6,1.7-1.3,2.5-1.9c1.7-1.3,3.3-2.5,5-3.8 c1.7-1.2,3.3-2.5,4.9-3.7c1.7-1.2,3.2-2.5,4.8-3.8c3.2-2.5,6.3-5,9.3-7.4c3-2.5,5.9-5.1,8.8-7.5c1.5-1.2,2.9-2.5,4.4-3.7 c1.4-1.3,2.8-2.5,4.2-3.8c2.8-2.5,5.6-4.9,8.3-7.3c-0.1-2.5,0.8-5.9,2.4-9.9c0.8-2,1.8-4.2,3-6.5c1.2-2.3,2.4-4.9,3.8-7.6 c1.4-2.7,2.9-5.5,4.6-8.4c1.6-3,3.2-6.2,5-9.4c0.9-1.6,1.8-3.3,2.8-5c0.9-1.7,1.8-3.5,2.7-5.2c0.9-1.8,1.9-3.6,2.8-5.4 c0.9-1.8,2-3.6,2.9-5.5c7.7-15,15.4-31.9,22.2-49.3c1.7-4.4,3.5-8.7,4.9-13.2c0.8-2.2,1.5-4.4,2.3-6.6c0.8-2.2,1.6-4.4,2.2-6.6 c1.4-4.4,2.8-8.8,4.1-13.2c1.2-4.4,2.4-8.7,3.6-13c12.9-40.6,19.5-83.2,21.4-125.8l0.3-8c0.1-2.7,0.2-5.3,0.2-8 c0-5.3,0-10.7,0.1-16c-0.1-5.3-0.3-10.7-0.4-16c-0.2-5.3-0.5-10.6-0.8-16c-1.3-21.3-3.7-42.5-6.8-63.5 c-3.2-21-7.4-41.9-12.2-62.6c-4.8-20.7-10.5-41.1-16.7-61.3c-1.6-5-3.1-10.1-4.8-15.1l-5-15c-1.7-5-3.5-9.9-5.3-14.9l-2.7-7.4 l-2.8-7.4c-7.4-19.7-15.6-39-24-58.1c-2.2-4.8-4.3-9.5-6.5-14.3c-2.2-4.7-4.5-9.4-6.7-14.1l-3.4-7c-1.1-2.3-2.3-4.7-3.5-7 c-2.3-4.6-4.6-9.3-7-13.9c-2.4-4.6-4.8-9.2-7.2-13.8l-3.6-6.9l-3.7-6.8c-2.5-4.5-4.9-9.1-7.4-13.6c-2.5-4.5-5.1-8.9-7.6-13.4 c-20.3-35.7-42.3-70-65.2-103c-22.8-33-46.8-64.6-71.4-94.9c-24.6-30.2-49.9-59.1-75.5-86.5c-14.7-16.9-35.1-34.6-57.5-52 c-22.4-17.4-46.5-34.7-68.4-52c5.7,6.3,10.8,11.9,15.4,16.8c4.7,4.9,8.8,9.4,12.8,13.3c3.9,4,7.6,7.5,11.1,10.9 c3.5,3.4,6.9,6.6,10.2,9.7c13.5,12.6,27.1,25,49,50.3c3.7,5.1,7,9.8,10,14.4c2.9,4.6,5.4,9,7.7,13.3c4.6,8.5,7.9,16.5,11,24.4 c1.5,4,3.1,7.9,4.5,11.9c1.5,4,2.9,8,4.5,12.2c1.6,4.2,3.3,8.4,5.2,12.9c1.9,4.5,3.9,9.1,6.2,14c0,0-1-6.1-1.9-12.1 c-0.5-3-1-6.1-1.4-8.4c-0.4-2.3-0.7-3.8-0.7-3.8c24.3,23.8,29.8,34.3,34.6,42.9c2.4,4.4,4.5,8.3,8.6,13.5 c4.1,5.1,10.1,11.5,20.1,20.8l-16.7,8.8c4.7,2.4,9.3,7,13.8,12.7c2.3,2.9,4.5,6,6.6,9.4c2.1,3.4,4.1,6.9,6.1,10.5 c1.9,3.6,3.8,7.3,5.5,10.9c1.7,3.7,3.2,7.3,4.7,10.7c1.4,3.4,2.7,6.7,3.8,9.7c1.1,3,2,5.8,2.7,8.1c0,0,5,2,10,4c5,2,10,4,10,4 c7.7,19.9,14.1,36.2,17.9,49.7c1.9,6.7,3.3,12.7,3.8,18.1c0.5,5.4,0.3,10.1-0.8,14.2l8.6-9.1c0.1,2.2,1.3,6,3.4,11 c2,5,4.7,11.2,7.8,18c1.6,3.4,3.2,7,4.8,10.7c1.7,3.7,3.4,7.5,5.1,11.3c3.4,7.6,6.7,15.4,9.8,22.8c2.9,7.4,5.6,14.3,7.5,20.4 c1.9,6,3.2,11.1,3.5,14.6c0.7,7.1-2.4,8-11.8-1.2c1.8,2.5,3.7,4.8,5.8,7.3c2.1,2.5,4.2,5.2,6.4,8.3c2.2,3.1,4.4,6.8,6.6,11.1 c2.1,4.4,4.2,9.6,6.2,15.8l-9.7,7.8c3.8,8.5,7.9,17.2,11.3,25.8c1.7,4.3,3.5,8.6,5,12.7c1.5,4.2,2.9,8.2,4.2,12.1 c1.3,3.9,2.3,7.6,3.2,11.1c0.9,3.5,1.6,6.7,2.1,9.7c1,5.9,1.1,10.6,0.2,13.6c-2-4.6-3.9-8.4-5.8-11.5c-1.9-3.1-3.8-5.6-5.6-7.6 c-3.6-4.1-7-6.5-10.5-8.8c5.4,18.5,9.8,32.7,13.5,43.7c1.8,5.5,3.7,10.2,5.3,14.2c1.6,4,3.2,7.4,4.8,10.2 c0.8,1.4,1.5,2.7,2.3,3.8c0.7,1.1,1.5,2.2,2.2,3.1c1.4,1.8,2.9,3.3,4.3,4.4c2.8,2.3,5.6,3.4,8.4,4.3c5.6,1.9,11,3.3,16.8,12.9 c3,4.8,5.7,11.6,8.5,21.6c1.3,5,2.6,10.8,3.9,17.5c0.6,3.3,1.1,6.9,1.6,10.8c0.5,3.8,1.1,7.9,1.4,12.2l-7.8-0.9 c0,0,0.7,2.1,1.7,5.3c1,3.2,2.5,7.5,3.7,11.8c1.3,4.3,2.5,8.6,3.5,11.9c0.5,1.6,0.8,3,1.1,3.9c0.3,1,0.4,1.5,0.4,1.5 s-0.5,2.3-1.3,5.8c-0.4,1.7-0.9,3.7-1.4,5.9c-0.6,2.1-1.2,4.4-1.8,6.7c-0.6,2.3-1.2,4.5-1.8,6.7c-0.3,1.1-0.6,2.1-0.8,3.1 c-0.3,1-0.6,1.9-0.8,2.7c-1,3.4-1.7,5.6-1.7,5.6c0.8,1.5,1.5,3.2,2.2,4.9c0.3,0.9,0.7,1.8,1,2.7c0.3,0.9,0.5,1.8,0.8,2.8 c1,3.8,1.8,7.9,2.5,12.4c0.5,4.4,0.8,9.1,1,14.1c0.1,2.5,0,5-0.1,7.6c-0.1,2.6-0.2,5.2-0.4,7.9c-1.5,21.5-7.2,45.8-15.8,69.8 c-4.4,11.9-9.3,23.8-15.1,35.2l-2.1,4.3c-0.7,1.4-1.5,2.8-2.2,4.2c-1.5,2.8-3,5.6-4.4,8.3c-1.6,2.7-3.1,5.4-4.7,8.1 c-0.8,1.3-1.5,2.7-2.3,4c-0.8,1.3-1.6,2.6-2.4,3.9c-6.2,10.5-13,20.2-19.2,29.5c-1.6,2.3-3.2,4.6-4.7,6.8 c-0.8,1.1-1.5,2.3-2.3,3.4c-0.8,1.1-1.6,2.2-2.3,3.3c-1.5,2.2-3,4.3-4.4,6.5c-1.5,2.1-2.9,4.2-4.3,6.3 c-9.9,12-25.6,21.8-44.7,31.2c-1.2,0.6-2.4,1.2-3.6,1.8c-1.2,0.6-2.5,1.1-3.7,1.7c-2.5,1.2-5.1,2.3-7.6,3.6 c-2.6,1.2-5.3,2.3-8,3.5c-1.3,0.6-2.7,1.2-4.1,1.9c-1.4,0.6-2.8,1.2-4.2,1.8c-2.8,1.2-5.7,2.5-8.6,3.8c-3,1.2-6,2.5-9,3.8 c-3,1.4-6.2,2.6-9.4,4c-1.6,0.7-3.2,1.4-4.8,2.1c-1.6,0.7-3.3,1.4-5,2.1c0,0,2,2.4,4,4.8c2,2.4,4,4.8,4,4.8 c-12.3,1.7-32.2,6.2-56.4,9c-6.1,0.6-12.3,1.4-18.9,1.8c-1.6,0.1-3.3,0.2-4.9,0.4c-1.6,0.1-3.3,0.3-5,0.3 c-3.4,0.1-6.8,0.3-10.2,0.4c-13.8,0.3-28,0.3-42.3-0.8l-5.3-0.3c-1.8-0.2-3.6-0.3-5.3-0.5c-3.5-0.4-7.1-0.7-10.6-1.1 c-3.5-0.5-7-1-10.5-1.4c-1.7-0.2-3.5-0.5-5.2-0.7c-1.7-0.3-3.4-0.6-5.1-0.9c-3.4-0.6-6.8-1.2-10.1-1.8 c-3.3-0.7-6.6-1.4-9.8-2.2c-6.4-1.4-12.6-3.1-18.5-4.8c-23.6-6.9-42.4-15.7-52.3-24.2c-11.6,0.2-17.1,0.5-19,1 c-1.8,0.4,0.1,1.2,3.3,2.1c3.3,0.9,7.9,2.1,11.6,3.6c3.7,1.6,6.4,3.3,5.8,5.6c-1.4,0-2.8-0.1-4.2-0.1c-1.4-0.1-2.7-0.2-4.1-0.2 c-2.7-0.2-5.3-0.4-7.8-0.5c-5-0.3-9.8-0.9-14.2-1.5c-8.9-1.1-16.7-2.7-23.5-4.3c-3.4-0.8-6.7-1.8-9.7-2.7 c-3-0.9-5.9-1.9-8.5-2.9c-5.3-2-10-4.2-14.3-6.4c-17.2-9-28.3-19-49.7-30c-6.9-1.5-11.4-2.5-14.1-2.9c-2.7-0.4-3.7-0.3-3.4,0.3 c0.3,0.6,1.8,1.5,4.1,2.7c2.3,1.2,5.3,2.7,8.5,4.1c3.2,1.5,6.6,3,9.6,4.6c3,1.5,5.7,3,7.5,4.2c3.6,2.4,3.6,4.1-4.3,3.9 c-9.9-4.6-18.5-8-26-11.1c-3.8-1.5-7.3-2.8-10.6-3.9c-3.3-1.2-6.4-2.2-9.4-3.1c-3-0.9-5.8-1.7-8.5-2.4c-2.7-0.7-5.3-1.4-7.9-2 c-5.1-1.2-10.1-2.1-15.1-3.2c-5.1-1.1-10.3-2.3-16-3.8c-5.8-1.5-12-3.6-19.1-6.2c-3.6-1.3-7.3-2.9-11.4-4.6 c-4-1.8-8.3-3.7-12.9-5.9c-4.6-2.3-9.4-4.8-14.6-7.6c-1.3-0.7-2.6-1.4-4-2.2c-1.3-0.8-2.7-1.6-4.1-2.3c-2.8-1.6-5.6-3.3-8.5-5 c-3.3-5.4,3.5-3.3,12.6,0.4c4.6,1.8,9.8,3.9,14.5,5.6c4.8,1.7,9.1,3.1,12.2,3.2c-18.5-5.4-40.3-14.1-63.8-25.5 c-23.5-11.4-48.7-25.5-74.3-41.2c-25.6-15.7-51.6-33.2-76.9-51.1c-25.3-17.9-50-36.2-73.1-53.6c-24.8-22-52.2-47-80.5-74.3 c-28.3-27.3-57.4-57.1-86-88.3c-7.2-7.8-14.2-15.7-21.2-23.7c-3.6-3.9-7-8-10.5-12l-10.4-12.1c-3.4-4.1-6.8-8.2-10.2-12.2 l-5.1-6.1l-5-6.2c-3.3-4.1-6.6-8.2-9.9-12.3c-3.3-4.1-6.5-8.3-9.7-12.4c-6.5-8.2-12.7-16.6-18.9-24.8 c-3.1-4.1-6.1-8.3-9.1-12.4c-3-4.1-6-8.3-8.9-12.4c-11.6-16.6-22.7-32.9-32.9-49.1l-5.1,0.3c-14.4-28.8-32.9-55.9-52-84.4 c-19-28.4-38.4-58.2-53.8-91.6c0,0,0.7,2.2,1.8,5.4c0.5,1.6,1.2,3.5,1.9,5.5c0.7,2,1.5,4.2,2.2,6.3c1.5,4.3,3.1,8.6,4.2,11.8 c0.6,1.6,1.1,3,1.4,3.9C266.9,987,267.1,987.5,267.1,987.5z"/> <path class="st2" d="M220.9,151.1c0,0-1.1-0.2-2.6-0.5c-1.6-0.3-3.7-0.7-5.8-1c-4.3-0.6-8.5-1.1-8.5-1.1s-1.1,0.7-2.9,1.9 c-1.9,1.2-4.5,2.9-7.6,5.2c-3.1,2.2-6.7,4.8-10.6,7.6c-3.7,2.9-7.7,6.1-11.7,9.2c-3.9,3.2-7.7,6.6-11.3,9.7 c-1.8,1.5-3.5,3.1-5,4.6c-1.6,1.5-3.1,2.9-4.4,4.2c-1.4,1.3-2.6,2.5-3.7,3.5c-1.1,1.1-2,2.1-2.8,2.8c-1.5,1.6-2.4,2.5-2.4,2.5 c1.9-1,3.6-1.9,5.3-2.9c1.7-0.9,3.4-1.8,5-2.7c3.2-1.8,6.2-3.6,9-5.5c2.9-1.8,5.6-3.7,8.3-5.6c2.7-1.9,5.3-4,8.1-5.9 c2.8-2,5.6-4.1,8.6-6.2c1.5-1.1,3.1-2.1,4.7-3.2c1.6-1.1,3.3-2.2,5.1-3.3c1.7-1.1,3.6-2.3,5.4-3.4c1.9-1.1,3.9-2.2,6-3.3 c2.1-1.1,4.3-2.3,6.6-3.4c0.6-0.3,1.1-0.6,1.7-0.9c0.6-0.3,1.2-0.5,1.8-0.8C218.4,152.2,219.7,151.7,220.9,151.1z"/> <path class="st2" d="M220.7,186c0,0,2-1.4,4.9-3.5c2.9-2.2,6.9-4.7,11-7.4c2-1.3,4-2.7,6-3.8c1.9-1.2,3.8-2.2,5.3-3.2 c3.1-1.9,5.2-3.1,5.2-3.1s-3.6,1.6-8.9,4c-2.7,1.2-5.7,2.7-9,4.4c-1.6,0.8-3.3,1.7-5,2.5c-0.9,0.4-1.7,0.9-2.6,1.3 c-0.8,0.5-1.7,0.9-2.5,1.4c-3.4,1.9-6.8,3.8-10,5.6c-3.1,1.9-6,3.7-8.5,5.2c-2.5,1.6-4.6,2.8-6,3.7c-1.4,1-2.2,1.5-2.2,1.5 s1.4-0.6,3.4-1.5c2.1-0.9,4.9-1.9,7.7-3c2.8-1.1,5.5-2.2,7.7-2.9C219.3,186.5,220.7,186,220.7,186z"/> <path class="st2" d="M178.3,1027.9l-3.4-9.1c0,0-1.2-1.9-3.3-5.1c-2.1-3.3-5-8-8.6-13.6c-3.6-5.6-7.6-12.3-11.9-19.4 c-4.4-7.1-8.8-14.8-13.3-22.5c-2.3-3.8-4.4-7.7-6.6-11.5c-2.1-3.8-4.3-7.6-6.3-11.2c-4-7.3-7.7-14.2-10.9-20.1 c-3.2-5.9-5.7-10.9-7.5-14.3c-1.8-3.5-2.8-5.5-2.8-5.5s1.1,2.1,2.9,5.9c0.9,1.9,2.1,4.1,3.4,6.7c1.3,2.6,2.7,5.5,4.4,8.7 c6.6,12.7,15.4,29.5,24.8,46c2.3,4.1,4.6,8.3,7,12.3c2.4,4,4.7,8,6.9,11.8c4.4,7.7,8.8,14.7,12.5,20.8 c3.7,6.1,6.8,11.1,9.1,14.6C177.1,1025.9,178.3,1027.9,178.3,1027.9z"/> <path class="st2" d="M824.1,1726.1c-8.5-1.8-17.8-6.1-26.9-10.8c-4.6-2.4-9.1-4.8-13.6-7c-4.4-2.2-8.8-4.2-12.9-5.7 c0,0,3.8,1.9,9.5,4.8c2.8,1.5,6.2,3.1,9.8,4.9c3.6,1.8,7.4,3.6,11.2,5.5c1.9,0.9,3.8,1.9,5.7,2.8c1.9,0.9,3.8,1.8,5.6,2.6 c3.6,1.7,7,3.3,9.9,4.7c2.9,1.4,5.3,2.5,7,3.3c1.7,0.8,2.7,1.2,2.7,1.2s-2-1.5-3.9-3.1C826.1,1727.6,824.1,1726.1,824.1,1726.1 z"/> <path class="st2" d="M1477.8,1903.9c3.1-3.2,6.3-5.8,9.5-7.9c3.2-2.1,6.3-3.8,9.2-5.3c5.8-2.9,10.9-4.3,13.9-5.1 c3-0.9,3.9-1,1.4-1.1c-2.5-0.1-8.5-0.3-19-1.5c-2.7,1.1-5.1,1.8-7.3,2.6c-2.1,0.8-3.9,1.5-5.5,2.2c-3.1,1.3-5.2,2.5-6.5,3.4 c-2.6,1.8-2,3.1-0.4,4.3C1476.2,1897.7,1483.7,1899.2,1477.8,1903.9z"/> <path class="st2" d="M1628.3,1805.7c-22.1,15.5-33.7,25.2-45.4,34.8c2.2-0.6,4.3-1.2,6.2-1.9c1.9-0.6,3.7-1.4,5.3-2 c3.3-1.4,6.1-2.7,8.5-4c1.2-0.7,2.3-1.3,3.4-2c1-0.7,1.9-1.4,2.8-2.1c1.7-1.4,3.2-2.8,4.5-4.2c2.6-2.8,4.6-5.5,6.7-8.6 C1622.4,1812.7,1624.8,1809.4,1628.3,1805.7z"/> </g> </g> </g> </g> </g> <path class="st3" d="M530,1130.6l0.6-490.3l843.1,221.6c-115.8,180.4-231.5,360.7-347.3,541.1c-167.5-53.1-335.1-106.3-502.6-159.4 L530,1130.6z"/> <g> <path class="st1" d="M661,664c41.6,61.5,118.8,159.4,244.9,239.2c72,45.6,308.1,195.2,472,97.1c66.8-40,124.3-122.7,117-205.1 c-9.2-103.7-117.4-165-188.4-205.1c-98-55.5-191.4-68-245-71.1"/> <path class="st2" d="M661,664c0,0,0.9,1.3,2.8,3.8c0.9,1.3,2.1,2.8,3.4,4.7c1.3,1.9,2.9,4,4.7,6.4c7.1,9.7,18,23.7,32.3,41 c14.4,17.3,32.6,37.6,54.7,59.7c5.6,5.5,11.2,11.2,17.4,16.8c3,2.8,6.1,5.7,9.2,8.6c3.1,2.9,6.4,5.7,9.7,8.6 c3.3,2.9,6.6,5.8,10,8.8c3.4,2.9,6.9,5.8,10.4,8.7c7,6,14.4,11.7,21.9,17.7c1.9,1.5,3.8,3,5.7,4.5c1.9,1.4,3.9,2.9,5.9,4.3 c3.9,2.9,7.9,5.8,11.9,8.8c1,0.7,2,1.5,3,2.2c1,0.7,2.1,1.4,3.1,2.1c2.1,1.4,4.2,2.9,6.2,4.3c4.2,2.9,8.4,5.8,12.7,8.7 c4.3,2.8,8.7,5.6,13.2,8.4c4.4,2.8,8.8,5.8,13.4,8.6c9.1,5.7,18.4,11.3,27.8,17c18.9,11.3,38.6,22.4,59.1,33 c20.5,10.6,41.7,20.8,63.7,30.1c22,9.3,44.8,17.8,68.2,24.9c11.7,3.5,23.6,6.7,35.7,9.4c12,2.7,24.2,5,36.5,6.7 c24.6,3.4,49.7,4.4,74.4,2.1c24.8-2.3,49.2-8.2,71.9-18.2c2.8-1.2,5.6-2.6,8.4-3.9c2.8-1.4,5.5-2.8,8.3-4.3l4-2.3l2-1.1l1-0.6 l0.9-0.6c2.7-1.7,5.5-3.4,8-5.1c1.3-0.9,2.5-1.7,3.8-2.6l3.8-2.7c1.3-0.9,2.5-1.8,3.7-2.8l3.7-2.8c4.8-3.9,9.6-7.8,14.2-12.1 c4.6-4.2,9-8.6,13.3-13c4.2-4.6,8.4-9.1,12.3-14c7.8-9.6,15-19.6,21.3-30.2c6.3-10.5,11.8-21.5,16.2-32.7 c4.4-11.3,7.9-22.8,10.2-34.5c2.3-11.7,3.3-23.5,3-35.2c0-0.7,0-1.5,0-2.2l-0.1-2.2l-0.3-4.4l0-0.5c0,0.3,0-0.3,0-0.3l-0.1-1.1 l-0.3-2.3l-0.5-4.5l-0.1-1.1l-0.2-1l-0.4-2.1l-0.7-4.2c-0.2-1.4-0.6-2.8-0.9-4.2l-1-4.2c-2.9-11.2-7-21.9-12.1-32.1 c-5.1-10.2-11.2-19.8-18-28.8c-13.5-18-29.5-33.8-46.2-47.7c-16.8-13.9-34.2-26.1-51.6-37.3c-8.7-5.6-17.3-10.9-25.9-16.1 c-4.3-2.6-8.6-5.1-12.8-7.6c-4.2-2.5-8.4-4.9-12.5-7.3c-4.2-2.3-8.4-4.7-12.5-7c-2.1-1.1-4.1-2.3-6.2-3.4c-2.1-1-4.1-2.1-6.1-3.1 c-4.1-2.1-8.1-4.1-12.1-6.1c-4.1-1.9-8.1-3.8-12-5.6c-2-0.9-3.9-1.9-5.9-2.7c-2-0.8-4-1.7-5.9-2.5c-3.9-1.6-7.8-3.3-11.6-4.9 c-3.9-1.5-7.7-3-11.4-4.4c-1.9-0.7-3.7-1.5-5.6-2.1c-1.9-0.7-3.7-1.3-5.6-1.9c-3.7-1.3-7.3-2.6-10.9-3.8c-3.6-1.1-7.1-2.2-10.6-3.3 c-1.7-0.5-3.5-1.1-5.2-1.6c-1.7-0.5-3.4-1-5.1-1.4c-3.4-1-6.7-1.9-9.9-2.8c-3.3-0.9-6.5-1.7-9.6-2.5c-3.1-0.8-6.2-1.6-9.2-2.3 c-6.1-1.3-11.8-2.7-17.3-3.7c-22-4.4-39.5-6.7-51.5-8.1c-3-0.3-5.6-0.6-7.9-0.9c-2.3-0.2-4.2-0.4-5.8-0.5c-3.1-0.3-4.7-0.4-4.7-0.4 s1.6,0.1,4.7,0.2c1.6,0.1,3.5,0.1,5.8,0.2c2.3,0.1,5,0.3,8,0.5c12,0.8,29.7,2.3,52,5.9c5.6,0.8,11.4,2,17.6,3.1 c3.1,0.5,6.2,1.3,9.4,1.9c3.2,0.7,6.5,1.3,9.8,2.1c3.3,0.8,6.7,1.6,10.1,2.5c1.7,0.4,3.5,0.8,5.2,1.3c1.7,0.5,3.5,1,5.3,1.5 c3.5,1,7.2,2,10.8,3c3.7,1.1,7.3,2.3,11.1,3.4c1.9,0.6,3.8,1.2,5.7,1.8c1.9,0.6,3.8,1.3,5.7,2c3.8,1.3,7.7,2.7,11.7,4.1 c3.9,1.4,7.9,3,11.9,4.6c2,0.8,4,1.6,6.1,2.4c2,0.8,4,1.7,6.1,2.6c4.1,1.8,8.2,3.5,12.4,5.3c4.1,1.9,8.3,3.9,12.5,5.9 c2.1,1,4.2,2,6.4,3c2.1,1,4.2,2.2,6.3,3.3c4.2,2.2,8.4,4.4,12.7,6.7c4.3,2.3,8.6,4.7,12.9,7.1c4.3,2.4,8.7,4.8,13.1,7.3 c8.8,5,17.7,10.1,26.6,15.6c9,5.4,17.9,11.2,26.9,17.4c8.9,6.2,17.8,12.7,26.6,19.7c8.8,7,17.4,14.5,25.6,22.6 c8.3,8.1,16.2,16.8,23.5,26.3c7.3,9.4,14,19.6,19.7,30.5c5.7,10.9,10.3,22.5,13.6,34.7l1.2,4.6c0.4,1.5,0.8,3,1.1,4.7l0.9,4.8 l0.4,2.4l0.2,1.2l0.1,1.1l0.6,4.5l0.3,2.3l0.1,1.1c0,0.3,0,0.2,0.1,0.8l0,0.6l0.3,4.8l0.2,2.4c0,0.8,0,1.6,0.1,2.4 c0.4,12.8-0.6,25.7-3,38.4c-2.4,12.7-6,25.2-10.6,37.3c-4.7,12.1-10.5,23.8-17.1,35.1c-6.6,11.3-14.2,22-22.4,32.2 c-4.1,5.1-8.5,10-12.9,14.9c-4.6,4.8-9.2,9.4-14.1,13.9c-4.8,4.5-9.9,8.7-15.1,12.9l-3.9,3c-1.3,1-2.6,2-4,3l-4,2.9 c-1.3,1-2.8,1.9-4.2,2.8c-2.8,2-5.5,3.6-8.3,5.3l-1.1,0.7l-1.1,0.6l-2.2,1.2l-4.3,2.5c-2.9,1.6-5.9,3.1-8.9,4.6 c-3,1.4-6,2.9-9.1,4.2c-24.5,10.7-50.6,16.9-76.9,19.3c-26.3,2.4-52.5,1.1-78.1-2.5c-25.6-3.6-50.4-9.7-74.4-17.2 c-24-7.5-47.2-16.4-69.5-26.1c-44.6-19.5-85.6-42.5-123.4-65.9c-9.4-5.8-18.7-11.7-27.7-17.6c-4.5-2.9-9-5.9-13.4-8.9 c-4.4-3-8.8-5.9-13.1-8.9c-4.2-3.1-8.4-6.1-12.6-9.1c-2.1-1.5-4.2-3-6.2-4.5c-1-0.7-2.1-1.5-3.1-2.2c-1-0.8-2-1.6-3-2.3 c-4-3.1-7.9-6.2-11.8-9.2c-2-1.5-3.9-3-5.8-4.5c-1.9-1.6-3.8-3.1-5.6-4.7c-7.5-6.2-14.8-12.2-21.7-18.4c-3.5-3.1-6.9-6.1-10.3-9.1 c-3.4-3-6.6-6.2-9.8-9.2c-3.2-3-6.4-6-9.5-9c-3-3-6.1-6-9-9c-6-5.8-11.5-11.8-16.9-17.5c-21.6-22.9-39-44.1-52.8-62 c-3.5-4.4-6.6-8.7-9.6-12.8c-1.5-2-2.9-4-4.3-5.9c-1.4-1.9-2.7-3.8-3.9-5.6c-2.5-3.6-4.9-6.9-7-9.9c-2.1-3.1-4-5.9-5.7-8.4 c-1.7-2.5-3.2-4.7-4.4-6.6c-1.3-1.9-2.3-3.5-3.2-4.9C661.8,665.3,661,664,661,664z"/> </g> <g> <path class="st1" d="M858.2,854c19.8,79.9,79,142.5,152.9,159.5c109.8,25.2,210.3-63.5,245.8-145.6c12.9-29.8,16.8-57.6,17.7-78.2"/> <path class="st2" d="M858.2,854c0,0,0.8,2.3,2.2,6.6c0.7,2.2,1.7,4.8,2.9,7.9c0.6,1.5,1.3,3.2,2,4.9c0.7,1.8,1.5,3.6,2.3,5.5 c3.3,7.8,7.8,17,13.7,27.1c5.9,10.1,13.4,21,22.5,31.9c4.6,5.4,9.6,10.9,15.1,16.3c5.5,5.4,11.4,10.6,17.8,15.6 c12.8,10,27.4,19,43.5,25.8c8.1,3.4,16.5,6.4,25.2,8.6c2.2,0.6,4.4,1.1,6.6,1.6l0.8,0.2c0,0,0.4,0.1,0,0l0.2,0l0.4,0.1l1.7,0.3 l3.5,0.6l3.5,0.7l0.9,0.2l0.8,0.1l1.7,0.2c2.2,0.3,4.4,0.6,6.6,0.8c2.3,0.2,4.5,0.3,6.8,0.5l3.4,0.2l3.4,0c2.3,0,4.6,0.1,6.9,0 c2.3-0.1,4.6-0.2,6.9-0.3l1.7-0.1l1.7-0.2l3.4-0.4l3.5-0.3c1.2-0.1,2.3-0.3,3.4-0.5c2.3-0.4,4.6-0.7,6.9-1.1l6.8-1.5 c18.1-4.1,35.7-11,51.9-19.7c8.1-4.4,16-9.2,23.4-14.4l2.8-1.9c0.9-0.6,1.8-1.3,2.7-2c1.8-1.4,3.6-2.7,5.4-4 c3.5-2.8,7.1-5.5,10.4-8.5c13.5-11.5,25.5-23.9,35.9-36.5c5.1-6.3,10-12.7,14.3-19c2.2-3.1,4.2-6.3,6.3-9.5c1-1.5,1.9-3.2,2.9-4.7 c0.9-1.6,1.9-3.1,2.8-4.7c3.5-6.2,6.6-12.3,9.4-18.3c0.7-1.5,1.3-3,2-4.4c0.6-1.4,1.2-2.9,1.8-4.3c1.2-2.9,2.2-5.7,3.2-8.4 c2-5.5,3.5-10.7,4.9-15.6c1.4-4.9,2.5-9.4,3.4-13.6c1.7-8.3,2.8-14.9,3.4-19.4c0.3-2.3,0.5-4,0.7-5.2c0.1-1.2,0.2-1.8,0.2-1.8 s0,0.6,0,1.8c0,1.2,0.1,2.9,0,5.2c-0.1,4.6-0.2,11.3-1.2,19.8c-0.5,4.3-1.1,9-2,14.1c-0.9,5.1-2.1,10.6-3.6,16.4 c-0.8,2.9-1.6,5.9-2.6,8.9c-0.5,1.5-1,3.1-1.5,4.7c-0.5,1.6-1.1,3.2-1.6,4.7c-0.3,0.8-0.6,1.6-0.9,2.4l-0.4,1.2l-0.2,0.6l-0.2,0.6 c-0.7,1.6-1.3,3.2-2,4.9c-0.3,0.8-0.7,1.6-1,2.5c-0.4,0.8-0.8,1.6-1.1,2.5c-0.8,1.7-1.5,3.3-2.3,5c-6.5,13.4-14.8,27.2-24.9,41 c-10.2,13.6-22.1,27.2-36,39.8c-3.4,3.2-7.1,6.2-10.7,9.3c-1.9,1.5-3.7,2.9-5.6,4.4c-0.9,0.7-1.9,1.5-2.8,2.2l-2.9,2.1 c-2,1.4-3.9,2.9-5.9,4.2c-2,1.3-4,2.7-6.1,4c-1,0.7-2.1,1.3-3.1,1.9l-3.2,1.9l-3.2,1.9c-1.1,0.6-2.2,1.2-3.2,1.8 c-17.2,9.7-36.1,17.2-55.9,21.7l-7.4,1.5c-2.5,0.4-5,0.8-7.5,1.2c-1.3,0.2-2.5,0.4-3.8,0.5l-3.8,0.4l-3.8,0.4l-1.9,0.2l-1.9,0.1 c-2.5,0.1-5,0.2-7.6,0.3c-2.5,0.1-5-0.1-7.6-0.1l-3.8-0.1l-3.8-0.3c-2.5-0.2-5-0.4-7.5-0.6c-2.5-0.4-5-0.7-7.6-1.1l-1.9-0.3 l-0.9-0.1l-0.9-0.2l-3.5-0.7l-3.5-0.7l-1.7-0.4l-0.4-0.1l-0.2,0c-0.5-0.1-0.3-0.1-0.4-0.1l-0.9-0.2c-2.4-0.6-4.8-1.2-7.1-1.9 c-9.4-2.7-18.4-6.1-27-10.1c-17.2-7.9-32.4-18.3-45.3-29.5c-6.5-5.6-12.5-11.4-17.9-17.4c-5.4-6-10.3-12-14.7-18 c-4.3-6.1-8.2-12-11.6-17.8c-3.4-5.9-6.4-11.5-8.9-16.9c-5.2-10.8-8.7-20.7-11.3-28.8c-1.3-4.1-2.3-7.8-3.1-11 c-0.8-3.2-1.4-6-1.9-8.2C858.6,856.4,858.2,854,858.2,854z"/> </g> <g> <path class="st1" d="M581.1,481.5c11.1-33.9,39.5-101.9,106.3-137.4c67.1-35.7,135.3-18.7,228.9,4.4c48.2,12,116.4,29.6,183.6,84.3 c43.4,35.3,91.1,74.1,87.1,127.1c-4.8,62.7-78.9,99-87.4,103"/> <path class="st2" d="M581.1,481.5c0,0,0.2-0.9,0.7-2.5c0.5-1.7,1.2-4.2,2.2-7.4c2.1-6.4,5.2-15.8,10.2-27.4 c5-11.6,11.9-25.4,21.8-40.1c4.9-7.4,10.6-15,17.1-22.5c6.6-7.5,14.1-15,22.5-22.1c8.5-7.1,17.9-13.7,28.3-19.6l0.5-0.3l0.2-0.1 c0,0,0.3-0.2,0.3-0.2l1-0.5l1.9-1c1.3-0.7,2.5-1.4,3.9-2.1c2.8-1.3,5.6-2.8,8.4-3.9c5.6-2.5,11.6-4.7,17.7-6.6 c6.1-1.9,12.4-3.5,18.8-4.8c6.4-1.2,13-2.2,19.7-2.8c13.3-1.2,27-1.1,40.7,0c13.7,1,27.5,3,41.3,5.5c6.9,1.2,13.8,2.6,20.7,4 c6.9,1.5,13.8,3,20.7,4.6c13.8,3.2,27.7,6.5,41.6,10c13.9,3.4,28,7.1,41.9,11.3c13.9,4.3,27.7,9.1,41.2,14.6 c13.5,5.5,26.6,11.8,39.3,18.6c12.7,6.8,24.8,14.5,36.4,22.5c5.7,4.2,11.5,8.2,16.8,12.6c2.7,2.2,5.5,4.3,8.1,6.5 c2.6,2.2,5.2,4.3,7.8,6.5c10.3,8.7,20.5,17.4,30,26.6c9.5,9.2,18.4,18.7,26,29c7.6,10.3,13.9,21.3,17.9,32.9 c2,5.8,3.4,11.7,4.2,17.6c0.8,5.9,0.9,11.7,0.5,17.4c0,0.7-0.1,1.4-0.1,2.1l0,0.3c0,0.1,0,0.5,0,0.4l-0.1,0.5l-0.1,1 c-0.2,1.3-0.4,2.6-0.5,3.9c-0.2,1.4-0.5,2.8-0.8,4.1c-0.1,0.7-0.3,1.4-0.4,2.1c-0.2,0.7-0.4,1.3-0.5,2c-0.4,1.3-0.7,2.6-1.1,3.9 c-0.4,1.3-0.9,2.5-1.3,3.8c-0.2,0.6-0.4,1.2-0.7,1.9c-0.3,0.6-0.5,1.2-0.8,1.8c-0.5,1.2-1,2.4-1.5,3.5c-4.4,9.2-9.7,17.3-15.4,24.2 c-11.4,13.8-23.7,23.4-34.1,30.6c-10.4,7.2-19.2,11.8-25.3,14.8c-3,1.5-5.4,2.6-7,3.3c-1.6,0.7-2.4,1-2.4,1s3.2-1.6,8.9-5.1 c5.7-3.5,14-8.8,23.8-16.6c4.9-3.9,10.1-8.4,15.4-13.7c5.3-5.3,10.7-11.2,15.7-18.1c5-6.9,9.6-14.8,13.1-23.5 c0.4-1.1,0.8-2.2,1.2-3.3c0.2-0.6,0.4-1.1,0.6-1.7c0.2-0.6,0.3-1.1,0.5-1.7c0.3-1.1,0.7-2.3,1-3.5c0.3-1.2,0.5-2.4,0.8-3.6 c0.1-0.6,0.3-1.2,0.4-1.8c0.1-0.6,0.2-1.2,0.3-1.8c0.2-1.2,0.4-2.4,0.6-3.6c0.1-1.3,0.2-2.6,0.4-4l0.1-1l0-0.5c0-0.2,0,0,0-0.1 l0-0.2l0-1.9c0.1-5.1-0.2-10.3-1.2-15.4c-1-5.2-2.4-10.3-4.5-15.4c-4-10.2-10-20-17.5-29.3c-7.4-9.3-16.1-18.1-25.5-26.7 c-9.4-8.5-19.5-16.9-30-25.2c-2.6-2.1-5.3-4.2-7.9-6.3c-2.6-2-5.3-4.1-8-6.1c-5.2-4.2-10.9-7.9-16.4-11.8c-1.4-1-2.8-1.9-4.3-2.8 c-1.4-0.9-2.9-1.8-4.3-2.8c-1.4-0.9-2.9-1.8-4.3-2.8c-1.4-0.9-2.9-1.8-4.4-2.6c-3-1.7-5.9-3.5-8.9-5.2c-3-1.6-6.1-3.3-9.1-4.9 c-12.2-6.5-24.9-12.3-37.9-17.6c-13-5.2-26.3-9.9-39.9-14c-13.5-4.2-27.2-7.8-41.1-11.2c-13.8-3.4-27.6-7-41.3-10.3 c-13.7-3.3-27.2-6.4-40.6-9c-6.7-1.3-13.4-2.5-20-3.5c-3.3-0.5-6.6-1-9.9-1.4c-1.6-0.2-3.3-0.4-4.9-0.6c-1.6-0.2-3.3-0.4-4.9-0.5 c-13.1-1.3-26-1.7-38.5-1c-6.3,0.4-12.4,1.1-18.4,2c-6,1-11.9,2.3-17.6,3.9c-22.9,6.4-43.2,17.3-59.9,30 c-16.7,12.8-30,27.2-40.4,40.9c-10.4,13.8-18.1,26.9-23.9,38c-5.7,11.1-9.7,20.1-12.2,26.3C582.4,478.1,581.1,481.5,581.1,481.5z"/> </g> <g> <path class="st1" d="M643.4,831.5c-17.7,8.6-111.2,52-206.8,10.8c-118.1-50.9-174.7-203.2-129.5-316.4 c34.7-87.1,117.8-121.5,129.6-126.2c141.2-56,288.6,51.7,341.2,90.1c77.2,56.4,123.1,121.6,147.7,162.4"/> <path class="st2" d="M643.4,831.5c0,0-1.2,0.6-3.5,1.8c-2.3,1.2-5.7,2.9-10.3,4.9c-4.6,2.1-10.3,4.5-17.1,7 c-6.8,2.6-14.7,5.2-23.8,7.7c-9,2.5-19.2,4.8-30.4,6.7c-5.6,0.9-11.5,1.7-17.6,2.2c-3.1,0.3-6.2,0.4-9.3,0.7 c-3.2,0.1-6.4,0.3-9.7,0.3c-13.2,0.1-27.2-0.7-41.8-3.2c-14.6-2.5-29.7-6.8-44.9-13c-3.7-1.6-7.4-3.3-11.2-5 c-3.7-1.9-7.5-3.9-11.3-5.9c-3.7-2.2-7.4-4.3-11.1-6.6c-1.8-1.2-3.6-2.4-5.4-3.6c-1.8-1.2-3.7-2.4-5.4-3.7 c-14.3-10.3-27.9-22.7-40.2-36.8l-2.3-2.6l-2.2-2.7c-1.5-1.8-3-3.7-4.5-5.5l-1.1-1.4l-1.1-1.4l-2.1-2.9c-1.4-1.9-2.9-3.8-4.2-5.8 c-5.4-8-10.7-16.2-15.3-24.9c-1.2-2.2-2.4-4.3-3.5-6.5c-1.1-2.2-2.2-4.5-3.3-6.7l-1.6-3.4l-1.5-3.4c-1-2.3-2-4.6-3-6.9 c-1-2.3-1.8-4.7-2.7-7.1c-0.9-2.4-1.9-4.7-2.6-7.1c-1.6-4.8-3.3-9.6-4.6-14.6c-0.7-2.5-1.4-4.9-2.1-7.4c-0.6-2.5-1.2-5-1.8-7.5 c-0.3-1.3-0.6-2.5-0.9-3.8l-0.7-3.8c-0.5-2.6-1-5.1-1.5-7.7c-0.4-2.6-0.7-5.2-1.1-7.8l-0.6-3.9l-0.4-3.9c-0.3-2.6-0.5-5.2-0.8-7.9 c-0.1-2.6-0.3-5.3-0.4-7.9l-0.2-4c0-1.3,0-2.7,0-4c0-2.7,0-5.3-0.1-8c0.1-2.7,0.2-5.3,0.3-8l0.2-4c0.1-1.3,0.2-2.7,0.3-4 c0.2-2.7,0.5-5.3,0.7-8c0.4-2.7,0.7-5.3,1.1-8l0.6-4l0.8-4c0.5-2.7,1-5.3,1.6-8c0.6-2.6,1.3-5.3,1.9-7.9c0.3-1.3,0.6-2.7,1-4 l1.2-3.9l1.2-3.9c0.4-1.3,0.8-2.6,1.3-3.9c0.9-2.6,1.9-5.1,2.8-7.7l0.7-1.9c0,0,0.2-0.5,0.2-0.6l0.2-0.5l0.4-0.9l1.5-3.7l0.8-1.8 l0.4-0.9l0.4-1l1.8-3.8c0.6-1.3,1.2-2.5,1.8-3.8l1.9-3.7l1.9-3.7l2.1-3.6c11-19.1,25-36.5,41-51.7c16-15.1,34-28,53.1-38.7 c4.8-2.7,9.6-5.2,14.6-7.5c2.5-1.2,5-2.3,7.5-3.4c1.3-0.5,2.5-1.1,3.8-1.6l0.5-0.2l0.7-0.3l0.9-0.3l1.9-0.7c5-1.7,9.8-3.7,15.3-5.1 c2.7-0.8,5.3-1.5,8-2.3c2.7-0.7,5.3-1.2,8-1.8c21.2-4.7,42.8-6.4,64-5.2c21.1,1.1,41.8,4.5,61.5,9.7c2.5,0.6,4.9,1.4,7.3,2.1 c2.4,0.7,4.9,1.3,7.3,2.1c2.4,0.8,4.8,1.6,7.2,2.3l3.6,1.2l3.5,1.3c2.3,0.8,4.7,1.7,7,2.5c2.3,0.8,4.6,1.8,6.9,2.7 c2.3,0.9,4.6,1.8,6.9,2.8c2.3,1,4.5,2,6.7,2.9c4.5,1.9,8.9,4,13.2,6c4.4,2,8.6,4.2,12.9,6.3c8.4,4.4,16.7,8.8,24.7,13.5 c16,9.3,31.2,19,45.4,28.9c7.1,5,14,9.9,20.7,14.9c3.3,2.5,6.7,5,9.9,7.4c0.8,0.6,1.6,1.2,2.4,1.8l1.3,1l1.2,0.9 c1.6,1.2,3.2,2.5,4.8,3.7s3.1,2.5,4.7,3.7c1.6,1.2,3.1,2.4,4.6,3.7c3,2.5,6.1,5,9,7.5c3,2.4,5.8,5,8.6,7.5c2.8,2.5,5.6,4.9,8.3,7.5 c5.3,5.1,10.6,9.9,15.4,14.9c2.4,2.5,4.9,4.9,7.2,7.3c2.3,2.5,4.6,4.9,6.8,7.3c1.1,1.2,2.2,2.4,3.3,3.6c1.1,1.2,2.1,2.4,3.2,3.6 c2.1,2.4,4.2,4.7,6.2,7c3.9,4.7,7.8,9.1,11.2,13.6c3.5,4.4,6.9,8.6,10,12.8c1.6,2.1,3.1,4.1,4.6,6.1c1.4,2,2.8,4,4.2,5.9 c10.9,15.2,18.6,27.7,23.8,36.3c1.3,2.1,2.4,4,3.4,5.7c0.9,1.7,1.7,3,2.4,4.2c1.3,2.2,1.9,3.4,1.9,3.4s-0.7-1.1-2.1-3.3 c-0.7-1.1-1.6-2.4-2.6-4c-1.1-1.6-2.3-3.4-3.7-5.5c-5.6-8.3-14-20.2-25.5-34.9c-1.4-1.8-2.9-3.7-4.4-5.6c-1.6-1.9-3.2-3.8-4.8-5.8 c-3.2-4-6.8-8-10.5-12.2c-1.8-2.1-3.8-4.2-5.7-6.4c-2-2.2-4-4.3-6-6.6c-2.1-2.2-4.2-4.4-6.4-6.7c-1.1-1.1-2.2-2.3-3.3-3.4 c-1.1-1.1-2.3-2.3-3.4-3.4c-2.3-2.3-4.6-4.6-7-6.9c-2.4-2.3-4.9-4.6-7.4-7c-4.9-4.8-10.3-9.3-15.7-14.1c-1.3-1.2-2.8-2.4-4.2-3.5 c-1.4-1.2-2.8-2.4-4.2-3.5c-2.9-2.4-5.7-4.8-8.7-7.1c-3-2.3-6-4.7-9-7.1c-1.5-1.2-3.1-2.3-4.7-3.5c-1.6-1.2-3.2-2.3-4.8-3.5 c-1.6-1.2-3.2-2.4-4.9-3.6l-1.2-0.9l-1.2-0.8c-0.8-0.6-1.7-1.2-2.5-1.8c-3.3-2.3-6.7-4.7-10.1-7.1c-6.8-4.7-13.8-9.4-20.9-14.1 c-7.2-4.7-14.5-9.3-22-13.9c-3.8-2.2-7.6-4.6-11.5-6.8c-1.9-1.1-3.9-2.2-5.8-3.4c-2-1.1-3.9-2.2-5.9-3.3 c-7.9-4.4-16.1-8.6-24.4-12.7c-4.2-2-8.4-4-12.7-5.9c-4.3-1.9-8.6-3.8-13-5.6c-17.5-7.2-35.8-13.6-54.8-18.3 c-19-4.6-38.7-7.7-58.6-8.5c-2.5-0.2-5-0.1-7.5-0.1c-2.5,0-5,0-7.5,0c-2.5,0.1-5,0.3-7.5,0.4l-3.8,0.2l-1.9,0.1l-1.9,0.2 c-2.5,0.3-5,0.5-7.5,0.8c-1.3,0.1-2.5,0.2-3.8,0.4l-3.7,0.6c-2.5,0.4-5,0.8-7.5,1.2c-1.3,0.2-2.5,0.5-3.7,0.8l-3.7,0.8 c-2.5,0.6-5,1.1-7.4,1.7c-2.4,0.7-4.8,1.4-7.2,2.1c-4.7,1.2-9.8,3.3-14.7,5l-1.9,0.7l-0.9,0.3c0,0-0.5,0.2-0.2,0.1l-0.4,0.2 c-1.2,0.5-2.3,1-3.5,1.5c-2.3,1-4.6,2.1-7,3.2c-4.6,2.2-9.2,4.6-13.7,7.1c-18,10-34.8,22.3-49.8,36.4c-15,14.1-28,30.3-38.2,48 l-1.9,3.3l-1.8,3.4l-1.8,3.4c-0.6,1.1-1.1,2.3-1.6,3.4l-1.6,3.4l-0.4,0.8l-0.4,0.9l-0.8,1.8l-1.6,3.6l-0.4,0.9l-0.2,0.5 c-0.1,0.2,0,0-0.1,0.3l-0.7,1.8c-0.9,2.4-1.8,4.8-2.6,7.1c-0.5,1.2-0.8,2.4-1.2,3.6l-1.1,3.6l-1.1,3.6c-0.4,1.2-0.6,2.5-1,3.7 c-0.6,2.5-1.2,4.9-1.9,7.4c-0.5,2.5-1,5-1.5,7.4l-0.7,3.7l-0.6,3.7c-0.4,2.5-0.7,5-1.1,7.5c-0.2,2.5-0.5,5-0.7,7.5 c-0.1,1.3-0.3,2.5-0.4,3.8l-0.2,3.8c-0.1,2.5-0.2,5-0.4,7.5c0,2.5,0,5,0,7.5c0,1.3,0,2.5,0,3.7l0.2,3.7c0.1,2.5,0.2,5,0.3,7.5 c0.2,2.5,0.4,5,0.7,7.4l0.3,3.7l0.5,3.7c0.3,2.5,0.7,4.9,1,7.3c1.7,9.7,3.5,19.4,6.1,28.7c1.2,4.7,2.7,9.3,4.2,13.9 c0.7,2.3,1.6,4.6,2.4,6.8c0.8,2.3,1.6,4.5,2.5,6.7c0.9,2.2,1.8,4.4,2.7,6.6l1.4,3.3l1.5,3.2c1,2.2,2,4.3,3,6.4 c1,2.1,2.1,4.2,3.2,6.3c4.2,8.4,9.1,16.3,14,24c1.3,1.9,2.6,3.8,3.9,5.6l2,2.8l1,1.4l1,1.3c1.4,1.8,2.8,3.6,4.1,5.4l2.1,2.7 l2.2,2.6c23,27.4,50.7,48.2,79.3,60.9c14.3,6.4,28.7,10.8,42.7,13.8c14,2.9,27.6,4.3,40.4,4.7c12.8,0.4,24.9-0.5,35.9-1.7 c11.1-1.3,21.2-3.1,30.2-5.2c18.1-4.2,32-8.9,41.3-12.5c4.7-1.8,8.2-3.3,10.6-4.3C642.1,832.1,643.4,831.5,643.4,831.5z"/> </g> <g> <path class="st1" d="M555.1,708.5c5.6,20.2,44,150.4,173.7,209.8c82.2,37.7,158,27.1,183.9,22.4 c115.1-21.2,179.2-100.7,194.4-120.7"/> <path class="st2" d="M555.1,708.5c0,0,0.9,2.6,2.7,7.4c1.8,4.8,4.6,11.8,8.4,20.6c3.9,8.8,8.9,19.2,15.3,30.9 c1.6,2.9,3.3,5.9,5.1,8.9c0.9,1.5,1.8,3.1,2.7,4.6c1,1.5,1.9,3.1,2.9,4.7c1.9,3.2,4.1,6.3,6.2,9.6c1,1.6,2.2,3.2,3.3,4.9 c1.1,1.6,2.2,3.3,3.5,5c2.4,3.3,4.8,6.7,7.4,10c1.3,1.7,2.6,3.4,3.9,5.1c1.4,1.7,2.7,3.3,4.1,5c0.7,0.8,1.4,1.7,2.1,2.5 c0.7,0.8,1.4,1.7,2.2,2.5c1.5,1.7,2.9,3.4,4.4,5.1c1.5,1.7,3.1,3.3,4.6,5c1.5,1.7,3.1,3.4,4.8,5c12.9,13.3,27.6,26.2,44.1,37.7 c2.1,1.4,4.1,2.9,6.2,4.3c2.1,1.4,4.3,2.7,6.4,4.1c1.1,0.7,2.1,1.4,3.2,2.1c1.1,0.6,2.2,1.3,3.3,1.9c2.2,1.3,4.4,2.6,6.7,3.9 c2.2,1.3,4.6,2.4,6.9,3.7l3.4,1.8l1.7,0.9l1.8,0.8c2.4,1.1,4.7,2.2,7.1,3.4l1.8,0.8l0.9,0.4c-0.3-0.1,0,0,0,0l0.2,0.1l0.5,0.2 l3.7,1.6c2.5,1,5,2.1,7.5,3.1c1.2,0.5,2.5,1.1,3.7,1.5l3.7,1.3c2.5,0.9,4.9,1.7,7.4,2.6c1.2,0.4,2.4,0.9,3.7,1.3l3.8,1.1 c5.1,1.5,10.2,3.2,15.4,4.3l7.8,1.9c2.6,0.6,5.2,1,7.9,1.6c2.6,0.5,5.2,1.1,7.9,1.5l7.9,1.2l4,0.6l4,0.4c2.7,0.3,5.3,0.6,8,0.9 c10.6,0.8,21.2,1.5,31.8,1.3l4,0l3.9-0.1c2.6-0.1,5.2-0.1,7.9-0.3c2.6-0.2,5.2-0.3,7.8-0.5c2.6-0.2,5.2-0.5,7.7-0.7 c2.6-0.3,5.1-0.6,7.7-0.9c2.5-0.4,5.1-0.7,7.6-1.1c1.3-0.2,2.5-0.4,3.8-0.6c1.2-0.2,2.5-0.5,3.7-0.7c2.5-0.5,5.1-0.9,7.6-1.4 c9.7-2,19.3-4.6,28.6-7.4c9.2-2.9,18.2-6.2,26.7-9.7c8.5-3.6,16.7-7.4,24.5-11.4c7.7-4,15.1-8.2,22-12.4 c13.8-8.5,26-17.3,36.3-25.7c5.2-4.2,9.9-8.2,14.2-12.1c4.3-3.8,8.2-7.5,11.6-10.8c6.8-6.7,12-12.2,15.4-16.1 c3.4-3.8,5.2-5.9,5.2-5.9s-0.4,0.6-1.1,1.7c-0.8,1.1-1.9,2.7-3.4,4.8c-3,4.2-7.5,10.3-13.8,17.7c-6.2,7.4-14.2,16.1-24,25.3 c-4.9,4.7-10.3,9.4-16.1,14.3c-5.8,4.9-12.2,9.7-19,14.5c-6.8,4.8-14.2,9.5-22,14.1c-7.8,4.6-16.1,8.9-24.8,13 c-8.7,4.1-17.9,7.7-27.5,11.2c-4.8,1.6-9.6,3.3-14.6,4.7c-4.9,1.5-10.1,2.8-15.2,4.1c-2.6,0.6-5.1,1.1-7.6,1.7 c-1.3,0.3-2.6,0.6-3.9,0.9c-1.3,0.2-2.6,0.5-3.9,0.7c-2.6,0.5-5.3,0.9-8,1.3c-2.7,0.4-5.4,0.8-8,1.1c-2.7,0.3-5.4,0.6-8.1,0.9 c-2.7,0.3-5.4,0.5-8.2,0.7c-1.4,0.1-2.7,0.2-4.1,0.3l-4.1,0.2l-4.1,0.2l-4.1,0.1c-11.1,0.3-22.2-0.2-33.4-1 c-2.8-0.3-5.6-0.6-8.4-0.9l-4.2-0.4l-4.2-0.6l-8.4-1.2c-1.4-0.2-2.8-0.5-4.2-0.7l-4.1-0.8c-2.8-0.6-5.5-1.1-8.3-1.7l-8.2-2 c-5.5-1.3-10.8-3-16.2-4.6c-5.4-1.5-10.7-3.7-16-5.6l-4-1.5c-1.3-0.5-2.5-1.1-3.8-1.6c-2.5-1.1-5-2.2-7.5-3.2l-3.7-1.6l-1.1-0.5 l-0.9-0.5l-1.9-0.9c-2.5-1.2-4.9-2.4-7.4-3.7l-1.8-0.9l-1.8-1l-3.6-2c-2.4-1.3-4.8-2.6-7.1-4c-2.3-1.4-4.6-2.8-6.9-4.2 c-1.1-0.7-2.3-1.4-3.4-2.1c-1.1-0.8-2.2-1.5-3.3-2.2c-2.2-1.5-4.4-3-6.6-4.5c-2.2-1.6-4.3-3.2-6.4-4.7c-17-12.5-31.8-26.7-44.6-41 c-1.6-1.8-3.2-3.6-4.7-5.4c-1.5-1.8-3-3.6-4.5-5.4c-1.4-1.8-2.9-3.7-4.3-5.5c-0.7-0.9-1.4-1.8-2.1-2.7c-0.7-0.9-1.3-1.8-2-2.7 c-1.3-1.8-2.6-3.6-4-5.4c-1.3-1.8-2.5-3.6-3.7-5.4c-2.5-3.6-4.7-7.2-7-10.7c-8.9-14.2-15.8-27.8-21.4-40.1 c-5.6-12.3-9.7-23.3-12.8-32.5c-3.1-9.1-5-16.5-6.3-21.5c-0.6-2.5-1.1-4.4-1.4-5.7C555.2,709.2,555.1,708.5,555.1,708.5z"/> </g> <path class="st4" d="M970.4,435.4c-21.2-30.3-26.6-77.3,0-110.5c33.9-42.3,93.2-29.1,96.4-28.3c5.9,1.4,51.4,13.2,68,56.7 c15.2,39.8,0.3,90.3-39.7,113.4C1050.9,492.2,996.2,472.3,970.4,435.4z"/> <path class="st5" d="M983.6,368.4c-3.8-3.5,8-31.2,32.1-43.5c27-13.7,60.3-3.2,60.5,1.9c0.1,3.7-17.3,2.9-45.3,15.1 C999.7,355.4,986.8,371.3,983.6,368.4z"/> <g> <path class="st1" d="M942.1,432.6c20.3-13.5,35.5-14.5,45.3-13.2c21.5,2.8,25.9,17.9,51,22.7c23.7,4.5,27.8-7.5,45.3-1.9 c31.2,10,42.7,55.7,45.3,66.1c3.6,14.5,4.1,27.1,3.8,35.9"/> <path class="st2" d="M942.1,432.6c0,0,0.9-0.6,2.5-1.8c0.8-0.6,1.8-1.3,3-2.1c0.6-0.4,1.2-0.8,2-1.3c0.7-0.4,1.5-0.9,2.3-1.3 c3.2-1.8,7.3-4,12.2-5.7c4.9-1.8,10.8-3.3,17.4-3.4c1.6,0,3.3,0,5.1,0.1l0.6,0.1l0.3,0l0.2,0l0.3,0c0.4,0.1,0.8,0.1,1.2,0.2 c0.8,0.1,1.7,0.2,2.5,0.3c3.7,0.7,7.2,1.9,10.7,3.5c3.5,1.6,6.8,3.7,10,5.8c3.2,2.1,6.4,4.2,9.7,5.9c6.6,3.6,14.1,5.7,22.1,6.5 c0.9,0.1,1.9,0.2,2.8,0.2l2.9,0l2.9-0.2c1-0.1,1.9-0.3,2.9-0.4c1.9-0.4,3.8-0.8,5.8-1.4c2-0.6,4.1-1.2,6.3-1.7l1.7-0.3 c0.6-0.1,1.2-0.2,1.8-0.2c1.2-0.2,2.4-0.2,3.6-0.2c1.2,0,2.4,0.1,3.6,0.2c1.2,0.2,2.3,0.4,3.5,0.7l1.7,0.5l0.8,0.2l0.4,0.1 c-0.1,0,0.2,0.1,0.2,0.1l0.1,0l0.2,0.1l1.5,0.5c0.5,0.2,1,0.3,1.5,0.6c1.1,0.5,2.2,0.9,3.2,1.5c1,0.6,2,1,2.9,1.6 c3.8,2.3,7.2,5.1,10.2,8.2c3,3.1,5.6,6.4,7.9,9.8c4.7,6.8,8.1,13.9,10.8,20.8c2.7,6.9,4.7,13.6,6.2,19.8c0.7,3.1,1.4,6.1,1.9,9 c0.5,2.9,0.9,5.6,1.2,8.2c0.6,5.2,0.8,9.7,0.8,13.4c0,3.7-0.2,6.6-0.3,8.6c-0.1,1-0.1,1.7-0.2,2.3c0,0.5-0.1,0.8-0.1,0.8 s0-1.1-0.1-3c-0.1-2-0.3-4.9-0.7-8.5c-0.4-3.7-1-8.1-2-13.1c-0.5-2.5-1.1-5.2-1.9-7.9c-0.8-2.8-1.6-5.7-2.5-8.7 c-1.9-6-4.2-12.4-7.1-18.9c-2.9-6.5-6.5-13.1-11-19.3c-2.2-3.1-4.7-6-7.5-8.7c-2.8-2.7-5.8-5.1-9.1-7c-0.8-0.5-1.7-0.9-2.5-1.4 c-0.9-0.5-1.7-0.8-2.5-1.2c-0.4-0.2-0.9-0.4-1.4-0.5l-1.5-0.5l-0.2-0.1l-0.1,0c-0.1,0,0.2,0.1,0,0l-0.3-0.1l-0.7-0.2l-1.4-0.4 c-0.9-0.2-1.8-0.3-2.8-0.5c-0.9-0.1-1.8-0.1-2.7-0.2c-1.8,0-3.6,0.2-5.5,0.7c-3.8,0.8-8,2.3-12.4,3c-1.1,0.2-2.2,0.3-3.4,0.5 l-3.4,0.2c-1.1,0-2.2,0-3.4,0c-1.1,0-2.3-0.2-3.4-0.3c-1.2-0.1-2.2-0.3-3.2-0.4l-1.5-0.2l-0.4-0.1l-0.2,0l-0.1,0 c-0.3,0-0.1,0-0.2,0l-0.8-0.2c-1.1-0.3-2.1-0.5-3.2-0.8c-1-0.2-2.1-0.6-3.1-0.9c-4.1-1.3-8-3-11.6-5.1c-7.3-4.1-13-9.3-19.1-12.4 c-3-1.6-6.2-2.7-9.2-3.6c-0.8-0.2-1.7-0.3-2.5-0.5c-0.4-0.1-0.8-0.2-1.2-0.3c-0.4-0.1-0.7-0.1-1.1-0.2c-1.6-0.2-3.1-0.3-4.6-0.4 c-3-0.1-6,0.1-8.8,0.4c-2.8,0.4-5.4,0.9-7.9,1.5c-4.9,1.3-9,2.9-12.4,4.4c-1.7,0.8-3.2,1.5-4.4,2.1c-1.3,0.6-2.4,1.2-3.2,1.7 C943,432.1,942.1,432.6,942.1,432.6z"/> </g> <path class="st6" d="M1112.1,330.6c8.4-9.5,20.6-22.2,36.8-35.4c15.4-12.6,58.2-47.5,113.4-59.5c80.2-17.4,148.9,21.8,168.6,34 c7.2-3.1,8.8-5.9,9-8c1.1-15.2-74.7-43.1-148.6-35.9c-16.5,1.6-48.5,5.1-82.9,23.4c-12.8,6.8-33.7,22.1-75.1,52.4 c-12.6,9.2-22.9,16.9-29.8,22L1112.1,330.6z"/> <line class="st7" x1="379.9" y1="662.9" x2="394.1" y2="682"/> <line class="st8" x1="368.6" y1="548.8" x2="387" y2="532.8"/> <line class="st9" x1="485.7" y1="565.8" x2="505.6" y2="582.8"/> <line class="st10" x1="504.6" y1="467.6" x2="528.3" y2="459.1"/> <line class="st8" x1="475.3" y1="759.5" x2="495.7" y2="780.3"/> <line class="st7" x1="534.9" y1="662.9" x2="555.1" y2="658.4"/> <line class="st9" x1="677.5" y1="508.2" x2="691.7" y2="529"/> <line class="st7" x1="716.3" y1="847.4" x2="755" y2="837.9"/> <line class="st8" x1="650.1" y1="730.2" x2="674.7" y2="753.8"/> <line class="st11" x1="704.9" y1="660.6" x2="714.4" y2="652.7"/> <line class="st9" x1="750.3" y1="403.5" x2="769.2" y2="399.5"/> <line class="st10" x1="867.4" y1="468.5" x2="884.2" y2="488.4"/> <line class="st11" x1="901.4" y1="425.1" x2="925.5" y2="419.4"/> <line class="st10" x1="839.1" y1="672.4" x2="850.4" y2="708.5"/> <line class="st11" x1="892.9" y1="875.7" x2="913.5" y2="872.9"/> <line class="st9" x1="966.6" y1="754.8" x2="997.8" y2="754.8"/> <line class="st12" x1="989.3" y1="616.8" x2="997.8" y2="640.3"/> <line class="st8" x1="1037.5" y1="574.3" x2="1060.1" y2="574.3"/> <line class="st9" x1="1145.2" y1="733" x2="1157.5" y2="761.4"/> <line class="st11" x1="1048.8" y1="963.6" x2="1078.2" y2="952.2"/> <line class="st10" x1="1151.3" y1="910.7" x2="1146.1" y2="883.3"/> <line class="st12" x1="1187.2" y1="842.6" x2="1198.1" y2="842.6"/> <line class="st12" x1="1242.5" y1="993.1" x2="1274.6" y2="981.8"/> <line class="st8" x1="1321.8" y1="903.8" x2="1323.7" y2="922.9"/> <line class="st10" x1="1258.5" y1="732.1" x2="1282.2" y2="734.9"/> <line class="st12" x1="1218.9" y1="640.3" x2="1235.9" y2="628.6"/> <line class="st12" x1="1413.5" y1="754.8" x2="1436.2" y2="776"/> <line class="st10" x1="1402.1" y1="836" x2="1400.3" y2="864.4"/> </svg>